<?xml version="1.0" encoding="UTF-8" standalone="no"?>
<!-- Created with Inkscape (http://www.inkscape.org/) -->

<svg
   xmlns:dc="http://purl.org/dc/elements/1.1/"
   xmlns:cc="http://creativecommons.org/ns#"
   xmlns:rdf="http://www.w3.org/1999/02/22-rdf-syntax-ns#"
   xmlns:svg="http://www.w3.org/2000/svg"
   xmlns="http://www.w3.org/2000/svg"
   xmlns:sodipodi="http://sodipodi.sourceforge.net/DTD/sodipodi-0.dtd"
   xmlns:inkscape="http://www.inkscape.org/namespaces/inkscape"
   width="703.22058mm"
   height="703.71179mm"
   viewBox="0 0 703.22058 703.7118"
   version="1.1"
   id="svg8"
   inkscape:version="0.92.4 (5da689c313, 2019-01-14)"
   sodipodi:docname="logo.svg"
   inkscape:export-filename="D:\Users\Pablo\Downloads\logo.png"
   inkscape:export-xdpi="96"
   inkscape:export-ydpi="96">
  <defs
     id="defs2" />
  <sodipodi:namedview
     id="base"
     pagecolor="#ffffff"
     bordercolor="#666666"
     borderopacity="1.0"
     inkscape:pageopacity="0.0"
     inkscape:pageshadow="2"
     inkscape:zoom="0.17068146"
     inkscape:cx="125.3835"
     inkscape:cy="1722.5328"
     inkscape:document-units="mm"
     inkscape:current-layer="layer1"
     showgrid="false"
     inkscape:window-width="1920"
     inkscape:window-height="1017"
     inkscape:window-x="1432"
     inkscape:window-y="-8"
     inkscape:window-maximized="1"
     inkscape:snap-global="false" />
  <metadata
     id="metadata5">
    <rdf:RDF>
      <cc:Work
         rdf:about="">
        <dc:format>image/svg+xml</dc:format>
        <dc:type
           rdf:resource="http://purl.org/dc/dcmitype/StillImage" />
        <dc:title />
      </cc:Work>
    </rdf:RDF>
  </metadata>
  <g
     inkscape:groupmode="layer"
     id="layer3"
     inkscape:label="Circle"
     style="display:none"
     transform="translate(25.842476,-17.460533)">
    <circle
       style="opacity:1;fill:#363636;fill-opacity:1;fill-rule:nonzero;stroke:none;stroke-width:13.36104202;stroke-linecap:round;stroke-linejoin:round;stroke-miterlimit:4;stroke-dasharray:none;stroke-dashoffset:0;stroke-opacity:0.55785128;paint-order:stroke markers fill"
       id="path833"
       cx="105"
       cy="148.5"
       r="1094.6375" />
  </g>
  <g
     inkscape:groupmode="layer"
     id="layer10"
     inkscape:label="CW"
     transform="translate(25.842476,-17.460533)" />
  <g
     inkscape:groupmode="layer"
     id="layer9"
     inkscape:label="CB2"
     transform="translate(25.842476,-17.460533)" />
  <g
     inkscape:groupmode="layer"
     id="layer8"
     inkscape:label="CB1"
     transform="translate(25.842476,-17.460533)" />
  <g
     inkscape:groupmode="layer"
     id="layer7"
     inkscape:label="CO"
     style="display:inline"
     transform="translate(25.842476,-17.460533)" />
  <g
     inkscape:groupmode="layer"
     id="layer5"
     inkscape:label="W"
     style="display:inline"
     transform="translate(25.842476,-17.460533)" />
  <g
     inkscape:groupmode="layer"
     id="layer6"
     inkscape:label="Oe"
     style="display:inline"
     transform="translate(25.842476,-17.460533)" />
  <g
     inkscape:groupmode="layer"
     id="layer2"
     inkscape:label="B2"
     style="display:inline"
     transform="translate(25.842476,-17.460533)" />
  <g
     inkscape:groupmode="layer"
     id="layer4"
     inkscape:label="B1"
     style="display:inline"
     transform="translate(25.842476,-17.460533)" />
  <g
     inkscape:groupmode="layer"
     id="layer1"
     inkscape:label="CC"
     transform="translate(25.842476,-17.460533)">
    <g
       id="g1076"
       transform="matrix(2.2219444,0,0,2.2219444,92.409427,39.538044)">
      <path
         sodipodi:nodetypes="ccscccscc"
         inkscape:connector-curvature="0"
         id="path881"
         d="m 237.94741,92.682226 -17.78378,54.475104 c 0,0 4.2939,12.17093 -6.5064,26.75443 -10.88654,14.69995 -12.22991,53.59638 -12.22991,53.59638 l -85.51972,26.00628 c 0,0 20.87617,23.46899 28.7793,33.72698 31.95296,-9.10934 59.7369,-29.08438 78.7547,-56.32948 19.0178,-27.2451 27.93758,-60.26047 25.47191,-93.39493 -1.22732,-15.4363 -4.93,-30.57464 -10.9661,-44.834764 z"
         style="fill:#363636;fill-opacity:1;stroke:none;stroke-width:0.03885458px;stroke-linecap:butt;stroke-linejoin:miter;stroke-opacity:1" />
      <path
         sodipodi:nodetypes="scccss"
         inkscape:connector-curvature="0"
         id="path871"
         d="m -0.9537241,164.22373 c -16.2364809,6.1947 -36.4448959,7.64811 -36.4448959,7.64811 5.670689,34.13705 22.484293,64.57848 49.068874,86.73146 25.989526,22.57591 67.701923,39.10124 112.759286,32.85712 0,0 -18.59277,-28.75552 -23.93803,-35.16547 C 78.11931,229.46652 41.712158,147.94543 -0.9537241,164.22373 Z"
         style="fill:#0075b2;fill-opacity:1;stroke:#000000;stroke-width:0.03885458px;stroke-linecap:butt;stroke-linejoin:miter;stroke-opacity:1" />
      <path
         transform="matrix(0.26458333,0,0,0.26458333,-39.267269,4.0268034)"
         id="path1045"
         d="m 241.52148,205.75391 c -0.82776,0.0135 -1.57583,0.0534 -2.41015,0.0645 -7.72321,0.10259 -15.72552,0.10122 -23.98633,-0.0273 -8.26081,-0.12857 -16.77943,-0.38349 -25.53516,-0.78711 -8.75572,-0.40362 -17.74906,-0.95712 -26.95703,-1.67969 -9.20796,-0.72257 -18.63052,-1.61381 -28.24804,-2.69922 -3.43322,-0.38746 -7.01829,-0.93946 -10.5,-1.37695 C 39.506055,302.14042 -5.1119675,433.04589 0.46875,567.72461 c 0,0 103.43639,-6.90962 138.16211,-23.625 95.42412,-45.93284 103.12939,-261.83385 102.89062,-338.3457 z"
         style="display:inline;fill:#00a8ff;fill-opacity:1;stroke:none;stroke-width:0.14685196px;stroke-linecap:butt;stroke-linejoin:miter;stroke-opacity:1"
         inkscape:connector-curvature="0" />
      <path
         sodipodi:nodetypes="cccsccccsccsc"
         inkscape:connector-curvature="0"
         id="path846"
         d="M 94.07569,4.4255535 C 58.484783,7.1758816 26.720782,20.712719 2.1219608,46.581135 16.0006,47.008735 31.821169,48.12337 46.455539,44.664642 58.179254,41.799834 65.253505,35.92369 80.908966,42.692073 c 6.943672,3.001983 21.596094,6.974755 21.596094,6.974755 l 53.56325,-1.968208 38.00314,8.109492 8.99279,28.699148 c 0,10e-7 -3.35853,37.93326 7.78583,48.0791 7.86659,7.16175 9.33628,15.06558 9.33628,15.06558 C 235.11116,124.57 237.87659,112.17796 239.19933,95.675058 227.93272,66.955955 207.76306,42.600912 181.64666,26.179682 155.53026,9.758448 124.84052,2.1345962 94.07569,4.4255535 Z"
         style="display:inline;fill:#ff9a19;fill-opacity:1;stroke:none;stroke-width:0.03885458px;stroke-linecap:butt;stroke-linejoin:miter;stroke-opacity:1" />
      <path
         sodipodi:nodetypes="ccsscc"
         inkscape:export-ydpi="96"
         inkscape:export-xdpi="96"
         inkscape:connector-curvature="0"
         id="path835"
         d="m 120.92658,232.33805 c -10.65447,5.85573 -11.07278,17.64801 -3.1215,22.74506 l 79.75421,-6.02358 c 12.22502,-0.92331 21.32368,-11.50831 20.40036,-23.73334 l -3.90389,-51.68884 c -28.77884,33.10904 -60.12497,41.11492 -93.12918,58.7007 z"
         style="display:inline;fill:#363636;fill-opacity:1;stroke:none;stroke-width:0.83779973;stroke-linecap:butt;stroke-linejoin:miter;stroke-miterlimit:4;stroke-dasharray:none;stroke-opacity:0.19421488;paint-order:normal" />
      <path
         inkscape:export-ydpi="96"
         inkscape:export-xdpi="96"
         style="display:inline;fill:#ff9a19;fill-opacity:1;stroke:none;stroke-width:1.76222324;stroke-linecap:round;stroke-linejoin:miter;stroke-miterlimit:4;stroke-dasharray:none;stroke-opacity:0.47933888;paint-order:stroke markers fill"
         d="m 155.97892,79.987198 c 0,0 8.7015,21.448682 15.8733,19.97335 14.11033,-3.718295 18.82108,-20.641672 11.99748,-28.274393 -6.46064,-7.226714 -27.87078,8.301043 -27.87078,8.301043 z"
         id="path921"
         inkscape:connector-curvature="0"
         sodipodi:nodetypes="ccac" />
      <path
         inkscape:export-ydpi="96"
         inkscape:export-xdpi="96"
         sodipodi:nodetypes="ccccsssccscssscsscccccsccccc"
         inkscape:connector-curvature="0"
         id="path908"
         d="m 81.467228,42.963671 c 1.051778,0.436362 9.443904,3.808615 12.199701,12.53834 4.0425,16.716459 2.360241,20.928153 1.858339,33.908957 0.173274,11.713392 6.883142,20.267132 6.883142,20.267132 0,0 1.59892,-14.089809 2.96925,-23.776549 0.93586,-6.615562 0.96097,-14.109244 5.04153,-19.399847 1.62504,-2.106923 4.31966,-4.215115 6.96226,-3.904424 3.99216,0.46936 8.8634,8.176845 8.8634,8.176845 0,0 -4.62131,5.795803 -6.10224,11.128028 -4.90096,15.765281 -5.20663,34.179677 -12.78102,53.978447 -5.07612,13.26849 -17.376188,33.92241 -17.376188,33.92241 0,0 20.094248,-8.26626 29.436088,-14.24417 14.35927,-9.1886 22.5774,-15.56376 34.67618,-22.66081 9.78837,-5.74178 19.85009,-9.22464 31.12811,-10.48422 13.56664,-1.51517 24.25492,8.73885 25.73418,10.23412 L 205.15699,55.814657 C 204.23368,43.589632 193.64837,34.490994 181.42336,35.41431 Z m 95.963552,17.027926 c 12.84946,-1.044153 17.53385,7.147683 20.15789,17.97021 1.70675,13.660178 -10.43148,26.817623 -18.29202,31.895213 -8.58429,5.32364 -12.67476,4.63787 -12.67476,4.63787 0,0 -4.54619,-0.25979 -8.01806,-5.65636 -4.50481,-7.00215 -12.79449,-21.444971 -12.79449,-21.444971 0,0 -6.78392,5.73478 -10.76216,4.914554 -6.42165,-1.345674 -6.42678,-8.339239 -6.42678,-8.339239 15.35898,-13.704623 31.43569,-21.088581 47.54108,-23.847328 0.4317,-0.05313 0.8548,-0.09627 1.2693,-0.129949 z"
         style="display:inline;opacity:1;fill:#ff9a19;fill-opacity:1;fill-rule:nonzero;stroke:none;stroke-width:1.76295757;stroke-linecap:round;stroke-linejoin:round;stroke-miterlimit:4;stroke-dasharray:none;stroke-dashoffset:0;stroke-opacity:0.47933888;paint-order:stroke markers fill" />
      <path
         inkscape:export-ydpi="96"
         inkscape:export-xdpi="96"
         sodipodi:nodetypes="cccssccscccccc"
         inkscape:connector-curvature="0"
         id="rect833"
         d="m 16.371282,149.76963 c -6.7872875,8.62944 -17.795438,14.67179 -17.795438,14.67179 l -0.069857,0.11493 5.8084423,76.90577 c 0.9233166,12.22503 11.5083017,21.32338 23.7333267,20.40007 l 72.279774,-5.45906 0.20927,-0.12517 c 0,0 -4.358856,-3.23919 -4.794588,-11.93622 -0.275753,-5.50387 2.496513,-11.23785 6.185748,-15.33149 26.14828,-23.22109 79.49379,-29.34476 103.3017,-70.05252 2.61148,-20.25289 -20.55269,-24.44378 -37.73939,-17.80291 -35.19322,18.48845 -59.9419,34.49729 -99.882316,45.69577 C 83.032598,164.13408 89.92121,148.65567 97.108829,130.4147 28.010026,109.35949 41.876094,114.83022 16.371282,149.76963 Z"
         style="display:inline;opacity:1;fill:#0075b2;fill-opacity:1;fill-rule:nonzero;stroke:none;stroke-width:0.83779973;stroke-linecap:round;stroke-linejoin:round;stroke-miterlimit:4;stroke-dasharray:none;stroke-dashoffset:0;stroke-opacity:0.55785128;paint-order:stroke markers fill" />
      <path
         sodipodi:nodetypes="ccscscccscc"
         inkscape:connector-curvature="0"
         transform="matrix(0.26458333,0,0,0.26458333,-39.267269,4.0268034)"
         id="path1032"
         d="m 154.40039,205.29683 c -7.83205,-0.36104 -15.91757,-0.88561 -24.11328,-1.5 -10.08458,15.02298 -15.43156,33.40054 -13.95703,52.92382 l 21.71289,287.48828 c 2.83316,-1.01038 38.33936,-14.24801 58.80078,-50.27734 49.48163,-87.1293 62.14891,-115.18494 134.79297,-107.70703 l 156.44531,37.27148 c 0,0 -27.8456,-35.052 -35.67383,-67.73047 -7.86127,-32.81654 2.29356,-99.47251 -4.01172,-133.00585 -3.88208,-20.6461 -30.90133,-40.2789 -58.22141,-37.38009 -88.69784,20.54967 -174.37273,22.89555 -235.77468,19.9172 z"
         clip-path="none"
         style="display:inline;opacity:1;fill:#00a8ff;fill-opacity:1;fill-rule:nonzero;stroke:none;stroke-width:3.16648722;stroke-linecap:round;stroke-linejoin:round;stroke-miterlimit:4;stroke-dasharray:none;stroke-dashoffset:0;stroke-opacity:0.57438013;paint-order:stroke markers fill" />
      <path
         transform="matrix(0.26458333,0,0,0.26458333,-39.267269,4.0268034)"
         id="rect852"
         d="m 326.91016,156.9375 -0.20704,0.0156 0.008,0.0723 c 0.0125,-0.003 0.19004,-0.0865 0.19922,-0.0879 z"
         clip-path="none"
         style="display:inline;opacity:1;fill:#00a8ff;fill-opacity:1;fill-rule:nonzero;stroke:none;stroke-width:3.16648722;stroke-linecap:round;stroke-linejoin:round;stroke-miterlimit:4;stroke-dasharray:none;stroke-dashoffset:0;stroke-opacity:0.57438013;paint-order:stroke markers fill"
         inkscape:connector-curvature="0" />
      <text
         inkscape:export-ydpi="96"
         inkscape:export-xdpi="96"
         id="text848"
         y="255.20273"
         x="154.18658"
         style="font-style:normal;font-variant:normal;font-weight:normal;font-stretch:normal;font-size:16.73683548px;line-height:1.25;font-family:sans-serif;-inkscape-font-specification:'sans-serif, Normal';font-variant-ligatures:normal;font-variant-caps:normal;font-variant-numeric:normal;font-feature-settings:normal;text-align:start;letter-spacing:0px;word-spacing:0px;writing-mode:lr-tb;text-anchor:start;fill:#000000;fill-opacity:1;stroke:none;stroke-width:0.41842198"
         xml:space="preserve"><tspan
           style="font-style:normal;font-variant:normal;font-weight:normal;font-stretch:normal;font-size:16.73683548px;font-family:Arial;-inkscape-font-specification:'Arial, Normal';font-variant-ligatures:normal;font-variant-caps:normal;font-variant-numeric:normal;font-feature-settings:normal;text-align:start;writing-mode:lr-tb;text-anchor:start;fill:#ffffff;stroke-width:0.41842198"
           y="255.20273"
           x="154.18658"
           id="tspan846"
           sodipodi:role="line">©</tspan></text>
    </g>
  </g>
</svg>
